<?xml version="1.0" encoding="UTF-8" standalone="no"?>
<!-- Generator: Adobe Illustrator 20.0.0, SVG Export Plug-In . SVG Version: 6.00 Build 0)  -->

<svg
   xmlns:dc="http://purl.org/dc/elements/1.1/"
   xmlns:cc="http://creativecommons.org/ns#"
   xmlns:rdf="http://www.w3.org/1999/02/22-rdf-syntax-ns#"
   xmlns:svg="http://www.w3.org/2000/svg"
   xmlns="http://www.w3.org/2000/svg"
   xmlns:sodipodi="http://sodipodi.sourceforge.net/DTD/sodipodi-0.dtd"
   xmlns:inkscape="http://www.inkscape.org/namespaces/inkscape"
   version="1.1"
   id="Layer_1"
   x="0px"
   y="0px"
   viewBox="0 0 700 700"
   xml:space="preserve"
   sodipodi:docname="oklahoma-city-thunder-logo.svg"
   width="700"
   height="700"
   inkscape:version="0.92.4 (5da689c313, 2019-01-14)"
   inkscape:export-filename="G:\Users\suitedoalex\sites\oklahoma-city-thunder-logo-0.png"
   inkscape:export-xdpi="561.73712"
   inkscape:export-ydpi="561.73712"><metadata
   id="metadata27"><rdf:RDF><cc:Work
       rdf:about=""><dc:format>image/svg+xml</dc:format><dc:type
         rdf:resource="http://purl.org/dc/dcmitype/StillImage" /><dc:title></dc:title></cc:Work></rdf:RDF></metadata><defs
   id="defs25" /><sodipodi:namedview
   pagecolor="#ffffff"
   bordercolor="#666666"
   borderopacity="1"
   objecttolerance="10"
   gridtolerance="10"
   guidetolerance="10"
   inkscape:pageopacity="0"
   inkscape:pageshadow="2"
   inkscape:window-width="1600"
   inkscape:window-height="837"
   id="namedview23"
   showgrid="false"
   inkscape:zoom="0.417193"
   inkscape:cx="-118.39839"
   inkscape:cy="46.202926"
   inkscape:window-x="-8"
   inkscape:window-y="-8"
   inkscape:window-maximized="1"
   inkscape:current-layer="Layer_1" />
<style
   type="text/css"
   id="style2">
	.st0{fill:#002D62;}
	.st1{fill:#007AC1;}
	.st2{fill:#F05133;}
	.st3{fill:#FFFFFF;}
	.st4{fill:#FDBB30;}
</style>
<path
   style="fill:#ffffff;stroke:none;stroke-width:1px;stroke-linecap:butt;stroke-linejoin:miter;stroke-opacity:1"
   d="m 350.06385,549.0025 40.4661,-26.05932 32.6271,-29.02543 30.4699,-37.21042 23.3705,-39.84966 11.9848,-24.56897 c 0,0 11.086,-30.86101 11.3857,-32.35912 0.2996,-1.49811 4.1947,-19.77502 4.1947,-19.77502 l -43.7448,-20.67388 -41.947,-11.38562 c 0,0 -80.5982,-7.49054 -82.0963,-7.49054 -1.4981,0 -32.6587,1.49811 -32.6587,1.49811 l -59.9243,15.87994 -47.3402,21.57275 13.7825,44.6436 16.4792,37.45269 -28.464,68.91295 -0.2996,18.57654 16.4791,-4.1947 51.5349,-25.16821 11.9849,12.5841 23.6701,21.87237 26.6663,20.97351 z"
   id="path986"
   inkscape:connector-curvature="0"
   inkscape:export-filename="G:\Users\suitedoalex\sites\oklahoma-city-thunder-logo-5.png"
   inkscape:export-xdpi="138.59753"
   inkscape:export-ydpi="138.59753" /><path
   class="st0"
   d="m 559.82935,190.02811 -22.4211,45.87484 13.8657,6.78534 22.4211,-45.87483 z m -71.9836,112.54822 64.9033,-133.19926 27.5839,13.42317 c 7.6704,3.6877 10.768,12.83316 7.0803,20.50355 l -23.8962,49.12 c -3.0976,6.34282 -8.4079,8.99796 -14.4557,6.04781 l -16.3733,65.78834 -13.8657,-6.78535 16.3733,-65.93585 -4.4252,-2.21261 -29.059,59.74054 z m 38.7945,-143.67229 -29.059,-9.44049 c -8.1129,-2.65513 -16.6684,1.77009 -19.3235,9.88301 l -36.1394,111.36816 c -2.6551,8.11291 1.7701,16.66835 9.8831,19.32348 l 29.0589,9.44048 4.7203,-14.60325 -29.2065,-9.44047 15.7833,-48.38246 21.8311,7.08036 4.7203,-14.60325 -21.8312,-7.08036 15.7833,-48.38246 29.2065,9.44049 z m -107.6805,-11.80061 15.1932,2.36012 -18.4384,115.64588 -15.0458,-2.36011 z m -35.8443,128.33153 30.239,4.72024 c 8.4079,1.32757 16.2258,-4.27772 17.5534,-12.68565 l 18.2909,-115.64587 c 1.3276,-8.40794 -4.4252,-16.22583 -12.6856,-17.5534 l -30.3866,-4.72024 z m -57.233,-1.03255 15.3408,0.29501 0.7376,-42.77717 c 0.295,-12.98066 -0.5901,-39.3845 -1.1801,-51.77514 h 0.4425 c 3.9827,33.04169 11.3581,63.72325 16.0783,94.84732 l 14.4558,0.29502 2.6551,-147.80252 -15.3408,-0.295 -0.7375,42.77716 c -0.295,12.98066 0.59,39.38451 1.1801,51.77514 h -0.4426 c -3.9827,-33.04169 -11.358,-63.72325 -16.0783,-94.84732 l -14.4557,-0.29502 z m -32.3041,-144.99988 -15.1933,2.36012 20.7986,130.83916 -15.1933,2.36011 -20.7985,-130.83914 -15.0458,2.36011 19.766,124.49633 c 1.9176,12.53814 13.8657,21.09357 26.2563,19.17598 12.5382,-1.9176 21.0936,-13.86571 19.176,-26.25633 z m -76.9989,169.78114 14.6032,-4.72024 -20.5035,-62.98571 14.6032,-4.72024 20.5036,62.9857 14.6032,-4.72024 -45.5798,-140.57464 -14.6032,4.72024 20.5035,62.9857 -14.6032,4.72024 -20.6511,-62.9857 -14.6032,4.72024 z m -30.5341,14.89825 13.7182,-6.63783 -57.9704,-119.18606 13.7182,-6.78535 -6.6378,-13.57069 -41.3021,20.06102 6.6378,13.71819 13.7182,-6.78534 z"
   id="path4"
   inkscape:connector-curvature="0"
   style="fill:#002d62;stroke-width:1.47507501"
   inkscape:export-filename="G:\Users\suitedoalex\sites\oklahoma-city-thunder-logo-5.png"
   inkscape:export-xdpi="138.59753"
   inkscape:export-ydpi="138.59753" />
<path
   class="st1"
   d="m 493.15605,394.326 c 33.9267,-7.52288 67.1159,-12.53814 99.2725,-15.19327 -35.5493,10.91555 -71.8362,23.01117 -108.418,36.28685 3.2451,-6.78535 6.1953,-13.86571 9.1454,-21.09358 m -358.5907,179.07411 c 28.3215,-25.07628 60.3306,-48.9725 95.4374,-70.95111 6.6378,-3.39267 13.1281,-6.63784 19.766,-9.883 2.6551,-1.32757 8.1129,-3.9827 14.7507,-7.08036 4.5728,5.01525 9.1455,10.03051 14.0132,14.75075 -50.1525,23.45369 -98.3875,47.93993 -143.9673,73.16372"
   id="path6"
   inkscape:connector-curvature="0"
   style="fill:#007ac1;stroke-width:1.47507501"
   inkscape:export-filename="G:\Users\suitedoalex\sites\oklahoma-city-thunder-logo-5.png"
   inkscape:export-xdpi="138.59753"
   inkscape:export-ydpi="138.59753" />
<path
   class="st2"
   d="m 507.16925,352.43387 c 29.354,-1.18006 57.8229,-0.73753 85.1118,1.32757 -29.5015,4.13021 -59.4455,8.99796 -89.9796,14.60324 1.7701,-5.16276 3.3927,-10.47303 4.8678,-15.93081 m -397.2377,121.69369 c 32.8941,-20.94607 69.3285,-39.97453 108.713,-56.49538 1.3276,2.65515 2.6551,5.31028 3.9827,7.8179 -2.0651,4.27772 -4.2777,8.70295 -6.3428,12.98066 -36.5819,11.35808 -72.1312,23.15868 -106.3529,35.69682"
   id="path8"
   inkscape:connector-curvature="0"
   style="fill:#f05133;stroke-width:1.47507501"
   inkscape:export-filename="G:\Users\suitedoalex\sites\oklahoma-city-thunder-logo-5.png"
   inkscape:export-xdpi="138.59753"
   inkscape:export-ydpi="138.59753" />
<path
   class="st3"
   d="m 321.16225,458.63927 4.8677,-2.21261 12.2432,-9.883 2.8026,-7.52288 c 1.7701,3.68768 2.8027,5.01525 4.5728,8.55543 l 3.9827,-1.77009 c 0.1475,3.9827 0.1475,7.67039 0.1475,11.35807 -8.8505,2.06511 -18.4385,3.09766 -28.3215,3.24517 z m 35.4018,-15.93081 c 5.1628,-2.21261 10.178,-4.42523 15.3408,-6.63783 l 2.3601,-2.50764 c 1.0325,0.14751 2.2126,0.14751 3.5402,0.14751 1.9176,-0.29501 4.4252,-1.03255 7.0803,-1.91759 -1.7701,6.19531 -2.8026,11.65309 -3.2451,16.37332 -7.2279,2.50764 -15.3408,5.01526 -24.6338,7.37538 -0.1475,-4.27772 -0.295,-8.40792 -0.4425,-12.83315 m -5.4578,-137.18198 c 55.4628,0 98.9776,12.98066 148.0976,37.46692 -24.0438,90.56959 -68.001,151.4902 -148.0976,200.90521 -30.0915,-18.58594 -55.6103,-39.3845 -76.9989,-62.98571 9.4405,-4.57273 20.2085,-9.58798 29.649,-14.0132 3.8352,0.295 7.3754,0.59002 10.9156,0.59002 -0.1475,5.16277 -1.9176,8.99796 -4.5728,11.8006 1.4751,1.77009 3.0977,3.54018 4.7203,5.16277 4.1302,-3.68769 6.7853,-9.14547 7.0803,-16.96337 9.7355,-0.14751 19.176,-1.18006 27.879,-3.09766 -0.4426,14.30824 -2.5077,24.78126 -6.4904,28.91147 -0.1475,0.14751 -0.295,0.29502 -0.295,0.29502 -1.0325,1.18005 -1.9176,1.9176 -2.6551,2.65513 3.8352,-0.73753 7.8179,-1.62257 11.5056,-2.65513 4.8677,-10.17802 5.0152,-27.87892 5.0152,-30.97657 8.998,-2.21262 17.1109,-4.57274 24.4863,-7.08037 0.295,8.26043 3.6877,16.22583 10.0305,19.17598 2.8026,-2.0651 5.6052,-4.13021 8.4079,-6.34282 -1.6226,0.29501 -11.6531,0.88504 -11.5056,-15.19328 21.3886,-8.1129 35.2543,-17.7009 47.4974,-32.15663 3.2452,-7.37538 5.7528,-14.89826 7.6704,-22.86366 -14.6032,23.01117 -28.0264,36.43435 -54.2827,47.05488 0.7375,-4.72023 2.0651,-10.17801 4.2777,-16.81585 7.6704,-3.24516 15.6358,-7.08035 20.5035,-8.99795 l 11.5056,-12.09562 c 2.9502,-11.21057 5.7528,-22.27363 8.5554,-33.4842 l -8.9979,2.80265 10.6205,-11.06307 c 2.2126,-8.70294 4.4253,-17.55339 6.6379,-26.25634 -5.3103,0.73755 -10.6206,1.62259 -15.9308,2.36012 0.885,-4.42522 1.475,-8.70294 1.9176,-12.98066 -2.5077,-0.59002 -5.1628,-1.32757 -7.6704,-1.77008 -0.5901,4.86774 -1.4751,10.17802 -2.9502,16.22583 l -0.7375,0.14749 c -5.0153,0.88505 -10.0305,2.50764 -14.4558,6.19532 l 1.4751,-4.27772 c -8.5554,1.47508 -16.9633,3.09766 -25.5188,4.72025 l -8.4079,8.85045 0.295,-0.73755 2.8027,-7.08035 c -8.408,1.77009 -16.8159,3.54018 -25.2238,5.31026 -1.7701,-11.35806 -3.5402,-21.53609 -5.0153,-29.79651 -2.3601,0.29502 -4.7202,0.59004 -7.0803,0.88504 1.475,8.40794 3.3926,18.88096 5.1627,30.38655 l -5.9003,1.32757 -7.5229,7.9654 c -5.3102,-5.60528 -16.0783,-2.06511 -22.8636,-0.29501 -7.3754,1.9176 -14.6033,3.8352 -21.9786,5.75279 -2.2127,0.59003 -4.4253,1.32757 -6.4904,2.06511 -5.4578,-7.96541 -10.6205,-16.07832 -14.8982,-24.92877 l -0.7376,-1.62258 c -2.2126,0.88505 -4.4252,1.77009 -6.6378,2.80264 l 0.885,1.9176 c 4.1302,8.55543 9.1455,16.66834 14.4558,24.48624 -7.8179,3.54019 -15.1933,8.40793 -21.5361,15.34079 0,0 -10.3255,10.76804 -11.5056,12.0956 -2.6551,3.09766 -5.0153,6.34283 -6.9329,9.588 -10.768,-21.6836 -19.3234,-45.28481 -25.8138,-71.09861 48.6775,-24.63377 92.1922,-37.61443 147.655,-37.61443"
   id="path10"
   inkscape:connector-curvature="0"
   style="fill:#ffffff;stroke-width:1.47507501"
   inkscape:export-filename="G:\Users\suitedoalex\sites\oklahoma-city-thunder-logo-5.png"
   inkscape:export-xdpi="138.59753"
   inkscape:export-ydpi="138.59753" />
<path
   class="st2"
   d="m 321.16225,458.63927 4.8677,-2.21261 12.2432,-9.883 2.8026,-7.52288 c 1.7701,3.68768 2.8027,5.01525 4.5728,8.70294 l 3.9827,-1.77009 c 0.1475,3.9827 0.1475,7.67039 0.1475,11.35807 -8.8505,2.06511 -18.4385,3.09766 -28.3215,3.24517 z m 35.4018,-15.93081 c 5.1628,-2.21261 10.178,-4.42523 15.3408,-6.63783 l 2.3601,-2.50764 c 1.0325,0.14751 2.2126,0.14751 3.3927,0.14751 1.9176,-0.29501 4.4252,-1.03255 7.0803,-1.91759 -1.7701,6.19531 -2.8026,11.65309 -3.2451,16.37332 -7.2279,2.50764 -15.3408,5.01526 -24.6338,7.37538 0,-4.27772 -0.1475,-8.40792 -0.295,-12.83315 m -96.7649,-94.69981 c 24.4862,-10.03051 49.5625,-16.96336 75.3763,-20.65106 1.4751,8.40794 3.3927,18.88097 5.1628,30.38655 l -5.9003,1.32757 -7.5229,7.9654 c -5.3103,-5.60528 -16.0783,-2.06511 -22.7162,-0.29501 -7.3753,1.9176 -14.6032,3.83521 -21.9786,5.75279 -2.2126,0.59003 -4.4252,1.32757 -6.4903,2.06511 -5.4578,-7.96541 -10.6205,-16.07832 -14.8983,-24.78125 z m -6.0478,38.35195 c -3.9827,-10.03051 -7.5229,-20.35603 -10.4731,-30.97658 3.2452,-1.62258 6.6379,-3.09766 10.0306,-4.57273 l 0.885,1.9176 c 4.1302,8.55543 9.1455,16.66835 14.4557,24.48624 -5.3102,2.36013 -10.3255,5.31027 -14.8982,9.14547 m 56.3478,92.92972 c -3.0976,-3.68768 -6.1953,-7.37538 -9.1454,-11.06306 l 2.8026,-1.32756 c 3.8352,0.295 7.5229,0.59002 10.9156,0.59002 -0.295,5.16277 -1.9176,8.99796 -4.5728,11.8006 m 30.0916,17.11087 c -3.9827,0.73754 -8.1129,1.32756 -12.2432,1.62258 -4.5727,-4.42522 -8.9979,-8.99796 -13.1281,-13.57068 4.1302,-3.68769 6.7853,-9.14547 7.0803,-16.96337 9.7355,-0.14751 19.176,-1.18006 27.879,-3.09766 -0.4426,14.30824 -2.5077,24.78126 -6.4904,28.91147 -0.1475,0.14751 -0.295,0.29502 -0.295,0.29502 -1.1801,1.32756 -2.0651,2.21261 -2.8026,2.80264 m 51.0376,-21.38859 c -11.8006,8.40793 -25.2238,14.75075 -39.532,18.88096 4.8677,-10.17801 5.0152,-27.87892 5.0152,-30.97657 8.998,-2.21261 17.1109,-4.57274 24.4863,-7.08036 0.295,8.26041 3.6876,16.22582 10.0305,19.17597 m 44.2522,-53.84023 c -8.2604,18.43843 -20.5035,34.66426 -35.8443,47.49741 -1.6226,0.29501 -11.6531,0.88505 -11.5056,-15.19327 21.2411,-8.26043 35.1068,-17.84841 47.3499,-32.30414 m -54.4303,-97.05993 c 11.8006,0 23.3062,0.59002 34.6643,1.91759 8.703,1.77009 17.2584,3.9827 25.8138,6.63784 3.2452,11.35808 5.0153,23.4537 5.0153,35.84433 0,10.32551 -1.1801,20.20851 -3.3927,29.79651 -14.6032,23.01117 -28.0264,36.43435 -54.2828,47.05488 0.7376,-4.72023 2.0652,-10.17801 4.2778,-16.81584 7.6704,-3.24516 15.6358,-7.08036 20.5035,-8.99796 l 11.5056,-12.09561 c 2.9501,-11.21058 5.7528,-22.27363 8.5554,-33.48422 l -8.9979,2.80266 10.6205,-11.06306 c 2.2126,-8.70295 4.4252,-17.55341 6.6378,-26.25635 -5.3102,0.73753 -10.6205,1.62259 -15.9308,2.36013 0.8851,-4.42524 1.4751,-8.70295 1.9176,-12.98067 -2.5076,-0.59002 -5.1627,-1.32757 -7.6704,-1.77008 -0.59,4.86774 -1.475,10.17801 -2.9501,16.22581 l -0.7375,0.14752 c -5.0153,0.88504 -10.0306,2.50763 -14.4558,6.19531 l 1.4751,-4.27771 c -8.5554,1.47507 -16.9634,3.09766 -25.5188,4.72025 l -8.4079,8.85044 0.295,-0.73755 2.8026,-7.08035 c -8.4079,1.7701 -16.8158,3.54019 -25.2238,5.31027 -1.77,-11.35807 -3.5401,-21.5361 -5.0152,-29.79652 12.3906,-1.77009 25.3713,-2.50762 38.4994,-2.50762"
   id="path12"
   inkscape:connector-curvature="0"
   style="fill:#f05133;stroke-width:1.47507501"
   inkscape:export-filename="G:\Users\suitedoalex\sites\oklahoma-city-thunder-logo-5.png"
   inkscape:export-xdpi="138.59753"
   inkscape:export-ydpi="138.59753" />
<path
   class="st4"
   d="m 242.39325,397.42366 c -6.9329,-15.04576 -12.6856,-30.82907 -17.4059,-47.05489 41.1546,-19.32348 83.6368,-29.79652 128.9216,-31.12408 21.0935,0.1475 41.5971,2.36011 61.8056,6.63783 -11.3581,-1.18006 -23.0112,-1.91759 -34.6642,-1.91759 -13.1282,0 -26.1089,0.73753 -38.7945,2.36011 -2.3601,0.29502 -4.7203,0.59004 -7.0804,0.88505 -25.8138,3.68769 -50.8901,10.62054 -75.3763,20.65105 -2.2126,0.88505 -4.4252,1.77009 -6.6378,2.80264 -3.3927,1.47507 -6.6379,2.95015 -10.0306,4.57273 2.9502,10.62055 6.4904,20.94607 10.4731,30.97658 -2.2126,1.9176 -4.4252,3.9827 -6.4904,6.19532 z m 111.2207,131.42918 c -23.6013,-15.93081 -44.5473,-34.81177 -62.6907,-55.90535 l 10.178,-4.72023 c 2.9501,3.68768 6.0478,7.52289 9.1454,11.06306 1.4751,1.77009 3.0977,3.54018 4.7203,5.16277 13.4232,14.75074 28.3214,28.32143 44.5473,40.41705 -2.0651,1.47508 -3.9827,2.65513 -5.9003,3.9827"
   id="path14"
   inkscape:connector-curvature="0"
   style="fill:#fdbb30;stroke-width:1.47507501"
   inkscape:export-filename="G:\Users\suitedoalex\sites\oklahoma-city-thunder-logo-5.png"
   inkscape:export-xdpi="138.59753"
   inkscape:export-ydpi="138.59753" />
<path
   class="st0"
   d="m 321.16225,458.63927 0.295,1.77009 c 9.883,-0.14751 19.471,-1.18006 28.3215,-3.24517 0,-3.68768 0,-7.37537 -0.1475,-11.35807 l -3.9827,1.77009 c -1.7701,-3.54018 -2.6552,-5.01526 -4.5728,-8.55543 l -2.8026,7.52288 -12.2432,9.883 z m 35.4018,-15.93081 c 0.1475,4.42523 0.295,8.55543 0.295,12.68564 9.293,-2.36011 17.4059,-4.72023 24.6338,-7.37536 0.4425,-4.72025 1.475,-10.17802 3.2451,-16.37334 -2.6551,0.88504 -5.0152,1.62259 -7.0803,1.91759 -1.3276,0.14751 -2.5077,0.14751 -3.5402,-0.1475 l -2.3601,2.50763 c -5.0153,2.36011 -10.0305,4.57273 -15.1933,6.78534 m -5.4578,-137.18198 c -55.4628,0 -98.9775,12.98067 -148.245,37.46692 6.4903,25.81382 14.8982,49.41501 25.8138,71.09861 2.0651,-3.39267 4.2777,-6.63783 6.9329,-9.58798 1.18,-1.32757 11.5055,-12.09562 11.5055,-12.09562 6.3429,-6.93286 13.5707,-11.80059 21.5361,-15.34078 -5.4577,-7.8179 -10.3255,-15.7833 -14.4557,-24.48625 l -0.885,-1.91759 c 2.2126,-0.88504 4.4252,-1.9176 6.6378,-2.80264 l 0.7375,1.62257 c 4.2777,8.85046 9.4405,16.96337 14.8983,24.92877 2.0651,-0.73753 4.2777,-1.32757 6.4903,-2.0651 7.3754,-1.91759 14.6033,-3.83519 21.9786,-5.75279 6.7854,-1.77008 17.5534,-5.31027 22.7162,0.29501 l 7.5229,-7.9654 5.9003,-1.32756 c -1.7701,-11.6531 -3.5402,-22.12614 -5.1628,-30.38656 2.3601,-0.29501 4.7203,-0.59003 7.0804,-0.88505 1.475,8.26042 3.2451,18.58596 5.0152,29.79653 8.408,-1.7701 16.8159,-3.54019 25.2238,-5.31027 l -2.8026,7.08036 -0.295,0.73753 8.4079,-8.85044 c 8.5554,-1.6226 16.9633,-3.24518 25.5188,-4.72024 l -1.3276,4.2777 c 4.4252,-3.68768 9.4405,-5.31026 14.4557,-6.1953 l 0.7376,-0.14751 c 1.4751,-6.04781 2.3601,-11.35809 2.9501,-16.22583 2.5077,0.59002 5.1628,1.18006 7.6704,1.77008 -0.295,4.27773 -1.0325,8.70295 -1.9176,12.98067 5.3103,-0.88505 10.6206,-1.62258 15.9308,-2.36012 -2.2126,8.70295 -4.4252,17.55339 -6.6378,26.25633 l -10.6205,11.06308 8.9979,-2.80264 c -2.9501,11.06305 -5.7528,22.27361 -8.5554,33.4842 l -11.5056,12.0956 c -4.8678,2.06511 -12.8332,5.9003 -20.5036,8.99797 -2.2126,6.63783 -3.5401,12.24311 -4.2777,16.81585 26.2564,-10.62055 39.6796,-24.04372 54.2828,-47.05489 -1.9176,7.9654 -4.4252,15.48828 -7.6704,22.86366 -12.2431,14.45572 -26.1088,24.19123 -47.4974,32.15663 -0.1475,16.22582 10.0305,15.48828 11.5056,15.19327 -2.6552,2.21261 -5.4578,4.42523 -8.408,6.34282 -6.3428,-2.95015 -9.7355,-10.91555 -10.0305,-19.17598 -7.2278,2.50764 -15.3407,4.72024 -24.4862,7.08037 -0.1475,3.09766 -0.1475,20.79855 -5.0153,30.97657 -3.8352,1.03256 -7.6704,1.9176 -11.5055,2.65514 0.7375,-0.73754 1.6225,-1.62258 2.6551,-2.65514 0,-0.14751 0.1475,-0.29501 0.295,-0.29501 4.1302,-4.13022 6.0478,-14.60324 6.4903,-28.91148 -8.7029,1.9176 -18.1434,2.80264 -27.8789,3.09766 -0.1475,7.8179 -2.8026,13.27568 -7.0804,16.96337 -1.6225,-1.77009 -3.0976,-3.39268 -4.7202,-5.16277 2.6551,-2.80264 4.2777,-6.63783 4.5727,-11.8006 -3.3926,-0.14751 -7.0803,-0.29502 -10.9155,-0.59002 -9.4405,4.42522 -20.2085,9.58798 -29.649,14.01321 21.3886,23.6012 46.9074,44.39976 76.9989,62.9857 80.0966,-49.41501 124.0538,-110.33561 148.0975,-200.9052 -48.5299,-24.33875 -92.0447,-37.31941 -147.5075,-37.31941 m -159.8981,32.15663 c 53.1027,-27.28888 99.7151,-42.18714 160.0456,-42.18714 60.1831,0 106.943,14.89826 160.0457,42.18714 -24.7813,99.42006 -71.9837,165.35591 -160.1932,218.1636 -33.1892,-19.91352 -62.3956,-43.21971 -86.4394,-70.36108 -6.6378,3.24516 -12.0956,5.75279 -14.7507,7.22786 -8.2604,4.13021 -16.6684,8.26042 -24.9288,12.53814 -9.2929,4.72024 -19.766,11.94811 -30.534,9.14547 -11.8006,-5.16276 -3.9827,-19.471 -0.4425,-27.58391 9.1454,-20.65105 18.7334,-41.00708 28.6164,-61.36312 -11.9481,-22.42114 -21.3886,-46.90738 -27.8789,-73.31123 z"
   id="path16"
   inkscape:connector-curvature="0"
   style="fill:#002d62;stroke-width:1.47507501"
   inkscape:export-filename="G:\Users\suitedoalex\sites\oklahoma-city-thunder-logo-5.png"
   inkscape:export-xdpi="138.59753"
   inkscape:export-ydpi="138.59753" />
<path
   class="st3"
   d="m 416.89465,347.56612 c -5.1628,0.88505 -9.7355,2.50764 -13.5707,6.34283 -3.0977,3.39267 -4.7203,7.37537 -6.1953,11.65309 -4.1302,12.68564 -8.1129,25.5188 -12.2432,38.20444 -1.6225,5.01525 -4.2777,14.16072 3.8352,13.5707 2.8027,-0.44253 5.3103,-1.62259 7.9654,-2.65515 8.1129,-3.54017 16.3734,-6.93285 24.6338,-10.32551 2.0651,-7.96541 4.1302,-16.07832 6.1953,-24.04373 -4.2777,1.32757 -8.5554,2.65513 -12.9807,4.13021 -1.0325,3.68769 -2.0651,7.22787 -3.0976,10.91556 -2.9502,1.03255 -6.0478,2.21261 -8.998,3.24516 3.8352,-12.98066 7.5229,-25.81381 11.3581,-38.79447 2.6551,-0.59004 5.3103,-1.18006 7.9654,-1.7701 -0.59,2.21262 -1.3276,4.57274 -1.9176,6.78536 3.8352,-0.88505 7.8179,-1.9176 11.6531,-2.80265 1.4751,-5.7528 2.9502,-11.65309 4.4252,-17.55339 -6.1953,1.03255 -12.5381,2.0651 -19.0284,3.09765 m -36.7294,6.19532 c -9.1455,11.94811 -18.1434,24.04373 -27.1414,36.13933 4.1302,-11.06306 8.408,-22.12611 12.6857,-33.18918 -9.4405,1.9176 -19.0285,3.9827 -28.3215,6.19532 -2.5076,5.75279 -4.8677,11.35807 -7.3754,17.11086 2.0651,-0.59002 4.1303,-1.18006 6.0479,-1.62258 -7.3754,17.99592 -14.7508,35.99184 -21.8312,54.13525 -2.9501,7.37538 -5.7528,14.75075 -8.7029,22.12613 9.4405,-4.42523 19.0285,-8.85045 28.4689,-13.27568 4.2778,-11.94811 8.703,-23.74871 13.1282,-35.69681 3.9827,8.11291 7.9654,16.22582 11.9481,24.33874 6.1953,-2.65514 12.2432,-5.45778 18.4385,-8.11292 -3.6877,-8.55543 -7.5229,-17.11087 -11.3581,-25.51878 6.7853,-10.32554 13.7182,-20.65106 20.651,-30.82908 1.9176,-0.44253 3.9827,-0.88504 5.9003,-1.32757 1.4751,-4.42522 2.9502,-8.85045 4.4253,-13.42318 -5.6053,0.88505 -11.3581,1.9176 -16.9634,2.95015 m -112.9907,99.12504 c -6.6379,2.95015 -13.1282,5.9003 -19.766,8.99796 9.5879,-22.12613 19.4709,-44.10475 29.7965,-65.93586 5.7528,-1.77009 11.6531,-3.68768 17.4059,-5.45777 -9.588,20.79856 -18.7335,41.59711 -27.4364,62.39567 m 15.7833,-76.26137 c -12.5382,3.39266 -23.6012,8.70294 -32.5992,18.58594 -5.1628,5.9003 -8.7029,12.53813 -12.2431,19.47098 -10.0305,20.35604 -19.6185,40.85958 -28.764,61.51063 -2.3601,5.31028 -9.7355,18.43845 -1.9176,21.83111 8.703,2.21262 19.471,-5.01525 27.1414,-8.85045 8.2604,-4.27772 16.6683,-8.40792 24.9288,-12.53813 14.1607,-7.08036 26.9938,-15.63579 35.5493,-29.354 3.3926,-5.75279 6.0478,-12.09561 8.5554,-18.29092 5.4578,-13.42318 10.9156,-26.69885 16.6684,-39.97454 2.0651,-5.01526 5.7527,-11.21055 4.5727,-16.66834 -2.3601,-7.37538 -14.7508,-2.80264 -20.061,-1.47507 -7.2279,1.91759 -14.6033,3.83519 -21.8311,5.75279"
   id="path18"
   inkscape:connector-curvature="0"
   style="fill:#ffffff;stroke-width:1.47507501"
   inkscape:export-filename="G:\Users\suitedoalex\sites\oklahoma-city-thunder-logo-5.png"
   inkscape:export-xdpi="138.59753"
   inkscape:export-ydpi="138.59753" />
<path
   class="st1"
   d="m 452.00145,336.50306 c 3.6876,1.18006 7.3753,2.50763 10.9155,3.83519 -3.5402,-1.32756 -7.2279,-2.65513 -10.9155,-3.83519 m -0.5901,-0.88504 c 3.8352,1.32757 7.5229,2.50763 11.2106,3.9827 9.1455,3.39268 17.1109,6.78534 23.8962,10.03051 -20.5035,70.6561 -62.6907,129.8066 -122.1362,171.99374 l -4.8677,3.39268 c -17.4059,-13.12817 -27.7315,-23.30619 -27.7315,-23.30619 l 8.2605,-1.32756 c 24.7812,-4.13022 48.8249,-15.34079 68.5909,-33.92673 33.7793,-31.5666 47.4975,-76.40889 40.5646,-118.89105 -0.1475,-1.03255 -0.295,-1.91759 -0.59,-2.95015 l -0.1475,-0.44252 -0.1475,-0.44252 -0.1475,-0.29502 -0.1476,-0.44251 -0.1475,-0.44253 -0.1475,-0.44252 -0.1475,-0.44253 -0.1475,-0.44252 -0.1475,-0.44252 -0.1475,-0.44253 -0.1475,-0.59002 -0.1475,-0.44253 -0.1475,-0.44252 -0.1475,-0.29501 -0.1475,-0.44252 c -0.295,-1.47508 -0.7376,-2.80265 -1.0326,-3.9827 2.5076,0.44251 4.2777,0.88504 6.0478,1.47507"
   id="path20"
   inkscape:connector-curvature="0"
   style="fill:#007ac1;stroke-width:1.47507501"
   inkscape:export-filename="G:\Users\suitedoalex\sites\oklahoma-city-thunder-logo-5.png"
   inkscape:export-xdpi="138.59753"
   inkscape:export-ydpi="138.59753" />
<path
   style="fill:#ffffff;stroke:none;stroke-width:1px;stroke-linecap:butt;stroke-linejoin:miter;stroke-opacity:1"
   d="m 348.8838,1059.0456 40.4661,-26.0593 32.6271,-29.0254 30.4699,-37.21046 23.3705,-39.84966 11.9848,-24.56897 c 0,0 11.086,-30.86101 11.3857,-32.35912 0.2996,-1.49811 4.1947,-19.77502 4.1947,-19.77502 l -43.7448,-20.67388 -41.947,-11.38562 c 0,0 -80.5982,-7.49054 -82.0963,-7.49054 -1.4981,0 -32.6587,1.49811 -32.6587,1.49811 l -59.9243,15.87994 -47.3402,21.57275 13.7825,44.6436 16.4792,37.45269 -28.464,68.91298 -0.2996,18.5765 16.4791,-4.1947 51.5349,-25.1682 11.9849,12.5841 23.6701,21.8724 26.6663,20.9735 z"
   id="path986-2"
   inkscape:connector-curvature="0"
   inkscape:export-filename="G:\Users\suitedoalex\sites\oklahoma-city-thunder-logo-4.png"
   inkscape:export-xdpi="139.27548"
   inkscape:export-ydpi="139.27548" /><path
   class="st1"
   d="m 491.976,904.36911 c 33.9267,-7.52288 67.1159,-12.53814 99.2725,-15.19327 -35.5493,10.91555 -71.8362,23.01117 -108.418,36.28685 3.2451,-6.78535 6.1953,-13.86571 9.1454,-21.09358 M 133.3852,1083.4432 c 28.3215,-25.0763 60.3306,-48.9725 95.4374,-70.9511 6.6378,-3.3927 13.1281,-6.6378 19.766,-9.883 2.6551,-1.3276 8.1129,-3.98269 14.7507,-7.08035 4.5728,5.01525 9.1455,10.03055 14.0132,14.75075 -50.1525,23.4537 -98.3875,47.9399 -143.9673,73.1637"
   id="path6-5"
   inkscape:connector-curvature="0"
   style="fill:#007ac1;stroke-width:1.47507501"
   inkscape:export-filename="G:\Users\suitedoalex\sites\oklahoma-city-thunder-logo-4.png"
   inkscape:export-xdpi="139.27548"
   inkscape:export-ydpi="139.27548" /><path
   class="st2"
   d="m 505.9892,862.47698 c 29.354,-1.18006 57.8229,-0.73753 85.1118,1.32757 -29.5015,4.13021 -59.4455,8.99796 -89.9796,14.60324 1.7701,-5.16276 3.3927,-10.47303 4.8678,-15.93081 M 108.7515,984.17067 c 32.8941,-20.94607 69.3285,-39.97453 108.713,-56.49538 1.3276,2.65515 2.6551,5.31028 3.9827,7.8179 -2.0651,4.27772 -4.2777,8.70295 -6.3428,12.98066 -36.5819,11.35808 -72.1312,23.15868 -106.3529,35.69682"
   id="path8-4"
   inkscape:connector-curvature="0"
   style="fill:#f05133;stroke-width:1.47507501"
   inkscape:export-filename="G:\Users\suitedoalex\sites\oklahoma-city-thunder-logo-4.png"
   inkscape:export-xdpi="139.27548"
   inkscape:export-ydpi="139.27548" /><path
   class="st3"
   d="m 319.9822,968.68238 4.8677,-2.21261 12.2432,-9.883 2.8026,-7.52288 c 1.7701,3.68768 2.8027,5.01525 4.5728,8.55543 l 3.9827,-1.77009 c 0.1475,3.9827 0.1475,7.67039 0.1475,11.35807 -8.8505,2.06511 -18.4385,3.09766 -28.3215,3.24517 z m 35.4018,-15.93081 c 5.1628,-2.21261 10.178,-4.42523 15.3408,-6.63783 l 2.3601,-2.50764 c 1.0325,0.14751 2.2126,0.14751 3.5402,0.14751 1.9176,-0.29501 4.4252,-1.03255 7.0803,-1.91759 -1.7701,6.19531 -2.8026,11.65309 -3.2451,16.37332 -7.2279,2.50764 -15.3408,5.01526 -24.6338,7.37538 -0.1475,-4.27772 -0.295,-8.40792 -0.4425,-12.83315 m -5.4578,-137.18198 c 55.4628,0 98.9776,12.98066 148.0976,37.46692 -24.0438,90.56959 -68.001,151.49019 -148.0976,200.90519 -30.0915,-18.5859 -55.6103,-39.3845 -76.9989,-62.98569 9.4405,-4.57273 20.2085,-9.58798 29.649,-14.0132 3.8352,0.295 7.3754,0.59002 10.9156,0.59002 -0.1475,5.16277 -1.9176,8.99796 -4.5728,11.8006 1.4751,1.77009 3.0977,3.54018 4.7203,5.16277 4.1302,-3.68769 6.7853,-9.14547 7.0803,-16.96337 9.7355,-0.14751 19.176,-1.18006 27.879,-3.09766 -0.4426,14.30824 -2.5077,24.78126 -6.4904,28.91143 -0.1475,0.1475 -0.295,0.2951 -0.295,0.2951 -1.0325,1.18 -1.9176,1.9176 -2.6551,2.6551 3.8352,-0.7375 7.8179,-1.6226 11.5056,-2.6551 4.8677,-10.17806 5.0152,-27.87896 5.0152,-30.97661 8.998,-2.21262 17.1109,-4.57274 24.4863,-7.08037 0.295,8.26043 3.6877,16.22583 10.0305,19.17598 2.8026,-2.0651 5.6052,-4.13021 8.4079,-6.34282 -1.6226,0.29501 -11.6531,0.88504 -11.5056,-15.19328 21.3886,-8.1129 35.2543,-17.7009 47.4974,-32.15663 3.2452,-7.37538 5.7528,-14.89826 7.6704,-22.86366 -14.6032,23.01117 -28.0264,36.43435 -54.2827,47.05488 0.7375,-4.72023 2.0651,-10.17801 4.2777,-16.81585 7.6704,-3.24516 15.6358,-7.08035 20.5035,-8.99795 L 424.27,917.34977 c 2.9502,-11.21057 5.7528,-22.27363 8.5554,-33.4842 l -8.9979,2.80265 10.6205,-11.06307 c 2.2126,-8.70294 4.4253,-17.55339 6.6379,-26.25634 -5.3103,0.73755 -10.6206,1.62259 -15.9308,2.36012 0.885,-4.42522 1.475,-8.70294 1.9176,-12.98066 -2.5077,-0.59002 -5.1628,-1.32757 -7.6704,-1.77008 -0.5901,4.86774 -1.4751,10.17802 -2.9502,16.22583 l -0.7375,0.14749 c -5.0153,0.88505 -10.0305,2.50764 -14.4558,6.19532 l 1.4751,-4.27772 c -8.5554,1.47508 -16.9633,3.09766 -25.5188,4.72025 l -8.4079,8.85045 0.295,-0.73755 2.8027,-7.08035 c -8.408,1.77009 -16.8159,3.54018 -25.2238,5.31026 -1.7701,-11.35806 -3.5402,-21.53609 -5.0153,-29.79651 -2.3601,0.29502 -4.7202,0.59004 -7.0803,0.88504 1.475,8.40794 3.3926,18.88096 5.1627,30.38655 l -5.9003,1.32757 -7.5229,7.9654 c -5.3102,-5.60528 -16.0783,-2.06511 -22.8636,-0.29501 -7.3754,1.9176 -14.6033,3.8352 -21.9786,5.75279 -2.2127,0.59003 -4.4253,1.32757 -6.4904,2.06511 -5.4578,-7.96541 -10.6205,-16.07832 -14.8982,-24.92877 l -0.7376,-1.62258 c -2.2126,0.88505 -4.4252,1.77009 -6.6378,2.80264 l 0.885,1.9176 c 4.1302,8.55543 9.1455,16.66834 14.4558,24.48624 -7.8179,3.54019 -15.1933,8.40793 -21.5361,15.34079 0,0 -10.3255,10.76804 -11.5056,12.0956 -2.6551,3.09766 -5.0153,6.34283 -6.9329,9.588 -10.768,-21.6836 -19.3234,-45.28481 -25.8138,-71.09861 48.6775,-24.63377 92.1922,-37.61443 147.655,-37.61443"
   id="path10-6"
   inkscape:connector-curvature="0"
   style="fill:#ffffff;stroke-width:1.47507501"
   inkscape:export-filename="G:\Users\suitedoalex\sites\oklahoma-city-thunder-logo-4.png"
   inkscape:export-xdpi="139.27548"
   inkscape:export-ydpi="139.27548" /><path
   class="st2"
   d="m 319.9822,968.68238 4.8677,-2.21261 12.2432,-9.883 2.8026,-7.52288 c 1.7701,3.68768 2.8027,5.01525 4.5728,8.70294 l 3.9827,-1.77009 c 0.1475,3.9827 0.1475,7.67039 0.1475,11.35807 -8.8505,2.06511 -18.4385,3.09766 -28.3215,3.24517 z m 35.4018,-15.93081 c 5.1628,-2.21261 10.178,-4.42523 15.3408,-6.63783 l 2.3601,-2.50764 c 1.0325,0.14751 2.2126,0.14751 3.3927,0.14751 1.9176,-0.29501 4.4252,-1.03255 7.0803,-1.91759 -1.7701,6.19531 -2.8026,11.65309 -3.2451,16.37332 -7.2279,2.50764 -15.3408,5.01526 -24.6338,7.37538 0,-4.27772 -0.1475,-8.40792 -0.295,-12.83315 m -96.7649,-94.69981 c 24.4862,-10.03051 49.5625,-16.96336 75.3763,-20.65106 1.4751,8.40794 3.3927,18.88097 5.1628,30.38655 l -5.9003,1.32757 -7.5229,7.9654 c -5.3103,-5.60528 -16.0783,-2.06511 -22.7162,-0.29501 -7.3753,1.9176 -14.6032,3.83521 -21.9786,5.75279 -2.2126,0.59003 -4.4252,1.32757 -6.4903,2.06511 -5.4578,-7.96541 -10.6205,-16.07832 -14.8983,-24.78125 z m -6.0478,38.35195 c -3.9827,-10.03051 -7.5229,-20.35603 -10.4731,-30.97658 3.2452,-1.62258 6.6379,-3.09766 10.0306,-4.57273 l 0.885,1.9176 c 4.1302,8.55543 9.1455,16.66835 14.4557,24.48624 -5.3102,2.36013 -10.3255,5.31027 -14.8982,9.14547 m 56.3478,92.92972 c -3.0976,-3.68768 -6.1953,-7.37538 -9.1454,-11.06306 l 2.8026,-1.32756 c 3.8352,0.295 7.5229,0.59002 10.9156,0.59002 -0.295,5.16277 -1.9176,8.99796 -4.5728,11.8006 m 30.0916,17.11087 c -3.9827,0.7375 -8.1129,1.3276 -12.2432,1.6226 -4.5727,-4.4252 -8.9979,-8.99798 -13.1281,-13.5707 4.1302,-3.68769 6.7853,-9.14547 7.0803,-16.96337 9.7355,-0.14751 19.176,-1.18006 27.879,-3.09766 -0.4426,14.30824 -2.5077,24.78126 -6.4904,28.91143 -0.1475,0.1475 -0.295,0.2951 -0.295,0.2951 -1.1801,1.3275 -2.0651,2.2126 -2.8026,2.8026 m 51.0376,-21.38859 c -11.8006,8.40793 -25.2238,14.75075 -39.532,18.88099 4.8677,-10.17804 5.0152,-27.87895 5.0152,-30.9766 8.998,-2.21261 17.1109,-4.57274 24.4863,-7.08036 0.295,8.26041 3.6876,16.22582 10.0305,19.17597 m 44.2522,-53.84023 c -8.2604,18.43843 -20.5035,34.66426 -35.8443,47.49741 -1.6226,0.29501 -11.6531,0.88505 -11.5056,-15.19327 21.2411,-8.26043 35.1068,-17.84841 47.3499,-32.30414 m -54.4303,-97.05993 c 11.8006,0 23.3062,0.59002 34.6643,1.91759 8.703,1.77009 17.2584,3.9827 25.8138,6.63784 3.2452,11.35808 5.0153,23.4537 5.0153,35.84433 0,10.32551 -1.1801,20.20851 -3.3927,29.79651 -14.6032,23.01117 -28.0264,36.43435 -54.2828,47.05488 0.7376,-4.72023 2.0652,-10.17801 4.2778,-16.81584 7.6704,-3.24516 15.6358,-7.08036 20.5035,-8.99796 l 11.5056,-12.09561 c 2.9501,-11.21058 5.7528,-22.27363 8.5554,-33.48422 l -8.9979,2.80266 10.6205,-11.06306 c 2.2126,-8.70295 4.4252,-17.55341 6.6378,-26.25635 -5.3102,0.73753 -10.6205,1.62259 -15.9308,2.36013 0.8851,-4.42524 1.4751,-8.70295 1.9176,-12.98067 -2.5076,-0.59002 -5.1627,-1.32757 -7.6704,-1.77008 -0.59,4.86774 -1.475,10.17801 -2.9501,16.22581 l -0.7375,0.14752 c -5.0153,0.88504 -10.0306,2.50763 -14.4558,6.19531 l 1.4751,-4.27771 c -8.5554,1.47507 -16.9634,3.09766 -25.5188,4.72025 l -8.4079,8.85044 0.295,-0.73755 2.8026,-7.08035 c -8.4079,1.7701 -16.8158,3.54019 -25.2238,5.31027 -1.77,-11.35807 -3.5401,-21.5361 -5.0152,-29.79652 12.3906,-1.77009 25.3713,-2.50762 38.4994,-2.50762"
   id="path12-6"
   inkscape:connector-curvature="0"
   style="fill:#f05133;stroke-width:1.47507501"
   inkscape:export-filename="G:\Users\suitedoalex\sites\oklahoma-city-thunder-logo-4.png"
   inkscape:export-xdpi="139.27548"
   inkscape:export-ydpi="139.27548" /><path
   class="st4"
   d="m 241.2132,907.46677 c -6.9329,-15.04576 -12.6856,-30.82907 -17.4059,-47.05489 41.1546,-19.32348 83.6368,-29.79652 128.9216,-31.12408 21.0935,0.1475 41.5971,2.36011 61.8056,6.63783 -11.3581,-1.18006 -23.0112,-1.91759 -34.6642,-1.91759 -13.1282,0 -26.1089,0.73753 -38.7945,2.36011 -2.3601,0.29502 -4.7203,0.59004 -7.0804,0.88505 -25.8138,3.68769 -50.8901,10.62054 -75.3763,20.65105 -2.2126,0.88505 -4.4252,1.77009 -6.6378,2.80264 -3.3927,1.47507 -6.6379,2.95015 -10.0306,4.57273 2.9502,10.62055 6.4904,20.94607 10.4731,30.97658 -2.2126,1.9176 -4.4252,3.9827 -6.4904,6.19532 z m 111.2207,131.42913 c -23.6013,-15.9308 -44.5473,-34.8117 -62.6907,-55.9053 l 10.178,-4.72023 c 2.9501,3.68768 6.0478,7.52289 9.1454,11.06306 1.4751,1.77009 3.0977,3.54018 4.7203,5.16277 13.4232,14.7507 28.3214,28.3214 44.5473,40.417 -2.0651,1.4751 -3.9827,2.6552 -5.9003,3.9827"
   id="path14-0"
   inkscape:connector-curvature="0"
   style="fill:#fdbb30;stroke-width:1.47507501"
   inkscape:export-filename="G:\Users\suitedoalex\sites\oklahoma-city-thunder-logo-4.png"
   inkscape:export-xdpi="139.27548"
   inkscape:export-ydpi="139.27548" /><path
   class="st0"
   d="m 319.9822,968.68238 0.295,1.77009 c 9.883,-0.14751 19.471,-1.18006 28.3215,-3.24517 0,-3.68768 0,-7.37537 -0.1475,-11.35807 l -3.9827,1.77009 c -1.7701,-3.54018 -2.6552,-5.01526 -4.5728,-8.55543 l -2.8026,7.52288 -12.2432,9.883 z m 35.4018,-15.93081 c 0.1475,4.42523 0.295,8.55543 0.295,12.68564 9.293,-2.36011 17.4059,-4.72023 24.6338,-7.37536 0.4425,-4.72025 1.475,-10.17802 3.2451,-16.37334 -2.6551,0.88504 -5.0152,1.62259 -7.0803,1.91759 -1.3276,0.14751 -2.5077,0.14751 -3.5402,-0.1475 l -2.3601,2.50763 c -5.0153,2.36011 -10.0305,4.57273 -15.1933,6.78534 m -5.4578,-137.18198 c -55.4628,0 -98.9775,12.98067 -148.245,37.46692 6.4903,25.81382 14.8982,49.41501 25.8138,71.09861 2.0651,-3.39267 4.2777,-6.63783 6.9329,-9.58798 1.18,-1.32757 11.5055,-12.09562 11.5055,-12.09562 6.3429,-6.93286 13.5707,-11.80059 21.5361,-15.34078 -5.4577,-7.8179 -10.3255,-15.7833 -14.4557,-24.48625 l -0.885,-1.91759 c 2.2126,-0.88504 4.4252,-1.9176 6.6378,-2.80264 l 0.7375,1.62257 c 4.2777,8.85046 9.4405,16.96337 14.8983,24.92877 2.0651,-0.73753 4.2777,-1.32757 6.4903,-2.0651 7.3754,-1.91759 14.6033,-3.83519 21.9786,-5.75279 6.7854,-1.77008 17.5534,-5.31027 22.7162,0.29501 l 7.5229,-7.9654 5.9003,-1.32756 c -1.7701,-11.6531 -3.5402,-22.12614 -5.1628,-30.38656 2.3601,-0.29501 4.7203,-0.59003 7.0804,-0.88505 1.475,8.26042 3.2451,18.58596 5.0152,29.79653 8.408,-1.7701 16.8159,-3.54019 25.2238,-5.31027 l -2.8026,7.08036 -0.295,0.73753 8.4079,-8.85044 c 8.5554,-1.6226 16.9633,-3.24518 25.5188,-4.72024 l -1.3276,4.2777 c 4.4252,-3.68768 9.4405,-5.31026 14.4557,-6.1953 l 0.7376,-0.14751 c 1.4751,-6.04781 2.3601,-11.35809 2.9501,-16.22583 2.5077,0.59002 5.1628,1.18006 7.6704,1.77008 -0.295,4.27773 -1.0325,8.70295 -1.9176,12.98067 5.3103,-0.88505 10.6206,-1.62258 15.9308,-2.36012 -2.2126,8.70295 -4.4252,17.55339 -6.6378,26.25633 l -10.6205,11.06308 8.9979,-2.80264 c -2.9501,11.06305 -5.7528,22.27361 -8.5554,33.4842 l -11.5056,12.0956 c -4.8678,2.06511 -12.8332,5.9003 -20.5036,8.99797 -2.2126,6.63783 -3.5401,12.24311 -4.2777,16.81585 26.2564,-10.62055 39.6796,-24.04372 54.2828,-47.05489 -1.9176,7.9654 -4.4252,15.48828 -7.6704,22.86366 -12.2431,14.45572 -26.1088,24.19123 -47.4974,32.15663 -0.1475,16.22582 10.0305,15.48828 11.5056,15.19327 -2.6552,2.21261 -5.4578,4.42523 -8.408,6.34282 -6.3428,-2.95015 -9.7355,-10.91555 -10.0305,-19.17598 -7.2278,2.50764 -15.3407,4.72024 -24.4862,7.08037 -0.1475,3.09766 -0.1475,20.79855 -5.0153,30.97652 -3.8352,1.0326 -7.6704,1.9176 -11.5055,2.6552 0.7375,-0.7376 1.6225,-1.6226 2.6551,-2.6552 0,-0.1475 0.1475,-0.295 0.295,-0.295 4.1302,-4.13018 6.0478,-14.6032 6.4903,-28.91144 -8.7029,1.9176 -18.1434,2.80264 -27.8789,3.09766 -0.1475,7.8179 -2.8026,13.27568 -7.0804,16.96337 -1.6225,-1.77009 -3.0976,-3.39268 -4.7202,-5.16277 2.6551,-2.80264 4.2777,-6.63783 4.5727,-11.8006 -3.3926,-0.14751 -7.0803,-0.29502 -10.9155,-0.59002 -9.4405,4.42522 -20.2085,9.58798 -29.649,14.01321 21.3886,23.60119 46.9074,44.39979 76.9989,62.98569 C 429.4328,1004.3792 473.39,943.4586 497.4337,852.88901 448.9038,828.55026 405.389,815.5696 349.9262,815.5696 m -159.8981,32.15663 c 53.1027,-27.28888 99.7151,-42.18714 160.0456,-42.18714 60.1831,0 106.943,14.89826 160.0457,42.18714 -24.7813,99.42006 -71.9837,165.35587 -160.1932,218.16357 -33.1892,-19.9135 -62.3956,-43.2197 -86.4394,-70.36105 -6.6378,3.24516 -12.0956,5.75275 -14.7507,7.22785 -8.2604,4.1302 -16.6684,8.2604 -24.9288,12.5381 -9.2929,4.7203 -19.766,11.9482 -30.534,9.1455 -11.8006,-5.1627 -3.9827,-19.471 -0.4425,-27.58389 9.1454,-20.65105 18.7334,-41.00708 28.6164,-61.36312 -11.9481,-22.42114 -21.3886,-46.90738 -27.8789,-73.31123 z"
   id="path16-2"
   inkscape:connector-curvature="0"
   style="fill:#002d62;stroke-width:1.47507501"
   inkscape:export-filename="G:\Users\suitedoalex\sites\oklahoma-city-thunder-logo-4.png"
   inkscape:export-xdpi="139.27548"
   inkscape:export-ydpi="139.27548" /><path
   class="st3"
   d="m 415.7146,857.60923 c -5.1628,0.88505 -9.7355,2.50764 -13.5707,6.34283 -3.0977,3.39267 -4.7203,7.37537 -6.1953,11.65309 -4.1302,12.68564 -8.1129,25.5188 -12.2432,38.20444 -1.6225,5.01525 -4.2777,14.16072 3.8352,13.5707 2.8027,-0.44253 5.3103,-1.62259 7.9654,-2.65515 8.1129,-3.54017 16.3734,-6.93285 24.6338,-10.32551 2.0651,-7.96541 4.1302,-16.07832 6.1953,-24.04373 -4.2777,1.32757 -8.5554,2.65513 -12.9807,4.13021 -1.0325,3.68769 -2.0651,7.22787 -3.0976,10.91556 -2.9502,1.03255 -6.0478,2.21261 -8.998,3.24516 3.8352,-12.98066 7.5229,-25.81381 11.3581,-38.79447 2.6551,-0.59004 5.3103,-1.18006 7.9654,-1.7701 -0.59,2.21262 -1.3276,4.57274 -1.9176,6.78536 3.8352,-0.88505 7.8179,-1.9176 11.6531,-2.80265 1.4751,-5.7528 2.9502,-11.65309 4.4252,-17.55339 -6.1953,1.03255 -12.5381,2.0651 -19.0284,3.09765 m -36.7294,6.19532 c -9.1455,11.94811 -18.1434,24.04373 -27.1414,36.13933 4.1302,-11.06306 8.408,-22.12611 12.6857,-33.18918 -9.4405,1.9176 -19.0285,3.9827 -28.3215,6.19532 -2.5076,5.75279 -4.8677,11.35807 -7.3754,17.11086 2.0651,-0.59002 4.1303,-1.18006 6.0479,-1.62258 -7.3754,17.99592 -14.7508,35.99184 -21.8312,54.13525 -2.9501,7.37538 -5.7528,14.75075 -8.7029,22.12613 9.4405,-4.42523 19.0285,-8.85045 28.4689,-13.27568 4.2778,-11.94811 8.703,-23.74871 13.1282,-35.69681 3.9827,8.11291 7.9654,16.22582 11.9481,24.33874 6.1953,-2.65514 12.2432,-5.45778 18.4385,-8.11292 -3.6877,-8.55543 -7.5229,-17.11087 -11.3581,-25.51878 6.7853,-10.32554 13.7182,-20.65106 20.651,-30.82908 1.9176,-0.44253 3.9827,-0.88504 5.9003,-1.32757 1.4751,-4.42522 2.9502,-8.85045 4.4253,-13.42318 -5.6053,0.88505 -11.3581,1.9176 -16.9634,2.95015 m -112.9907,99.12504 c -6.6379,2.95015 -13.1282,5.9003 -19.766,8.99796 9.5879,-22.12613 19.4709,-44.10475 29.7965,-65.93586 5.7528,-1.77009 11.6531,-3.68768 17.4059,-5.45777 -9.588,20.79856 -18.7335,41.59711 -27.4364,62.39567 m 15.7833,-76.26137 c -12.5382,3.39266 -23.6012,8.70294 -32.5992,18.58594 -5.1628,5.9003 -8.7029,12.53813 -12.2431,19.47098 -10.0305,20.35604 -19.6185,40.85958 -28.764,61.51063 -2.3601,5.31028 -9.7355,18.43843 -1.9176,21.83113 8.703,2.2126 19.471,-5.0153 27.1414,-8.85047 8.2604,-4.27772 16.6683,-8.40792 24.9288,-12.53813 14.1607,-7.08036 26.9938,-15.63579 35.5493,-29.354 3.3926,-5.75279 6.0478,-12.09561 8.5554,-18.29092 5.4578,-13.42318 10.9156,-26.69885 16.6684,-39.97454 2.0651,-5.01526 5.7527,-11.21055 4.5727,-16.66834 -2.3601,-7.37538 -14.7508,-2.80264 -20.061,-1.47507 -7.2279,1.91759 -14.6033,3.83519 -21.8311,5.75279"
   id="path18-9"
   inkscape:connector-curvature="0"
   style="fill:#ffffff;stroke-width:1.47507501"
   inkscape:export-filename="G:\Users\suitedoalex\sites\oklahoma-city-thunder-logo-4.png"
   inkscape:export-xdpi="139.27548"
   inkscape:export-ydpi="139.27548" /><path
   class="st1"
   d="m 450.8214,846.54617 c 3.6876,1.18006 7.3753,2.50763 10.9155,3.83519 -3.5402,-1.32756 -7.2279,-2.65513 -10.9155,-3.83519 m -0.5901,-0.88504 c 3.8352,1.32757 7.5229,2.50763 11.2106,3.9827 9.1455,3.39268 17.1109,6.78534 23.8962,10.03051 -20.5035,70.6561 -62.6907,129.8066 -122.1362,171.99376 l -4.8677,3.3927 c -17.4059,-13.1282 -27.7315,-23.3062 -27.7315,-23.3062 l 8.2605,-1.3276 c 24.7812,-4.1302 48.8249,-15.34078 68.5909,-33.92672 33.7793,-31.5666 47.4975,-76.40889 40.5646,-118.89105 -0.1475,-1.03255 -0.295,-1.91759 -0.59,-2.95015 l -0.1475,-0.44252 -0.1475,-0.44252 -0.1475,-0.29502 -0.1476,-0.44251 -0.1475,-0.44253 -0.1475,-0.44252 -0.1475,-0.44253 -0.1475,-0.44252 -0.1475,-0.44252 -0.1475,-0.44253 -0.1475,-0.59002 -0.1475,-0.44253 -0.1475,-0.44252 -0.1475,-0.29501 -0.1475,-0.44252 c -0.295,-1.47508 -0.7376,-2.80265 -1.0326,-3.9827 2.5076,0.44251 4.2777,0.88504 6.0478,1.47507"
   id="path20-2"
   inkscape:connector-curvature="0"
   style="fill:#007ac1;stroke-width:1.47507501"
   inkscape:export-filename="G:\Users\suitedoalex\sites\oklahoma-city-thunder-logo-4.png"
   inkscape:export-xdpi="139.27548"
   inkscape:export-ydpi="139.27548" /></svg>